<?xml version="1.0" standalone="no"?>
<!DOCTYPE svg PUBLIC "-//W3C//DTD SVG 20010904//EN"
 "http://www.w3.org/TR/2001/REC-SVG-20010904/DTD/svg10.dtd">
<svg version="1.0" xmlns="http://www.w3.org/2000/svg"
 width="575.000000pt" height="575.000000pt" viewBox="0 0 575.000000 575.000000"
 preserveAspectRatio="xMidYMid meet">
<metadata>
Created by potrace 1.14, written by Peter Selinger 2001-2017
</metadata>
<g transform="translate(0.000000,575.000000) scale(0.100000,-0.100000)"
fill="#000000" stroke="none">
<path d="M2810 5723 c-36 -13 -72 -26 -80 -28 -8 -2 -139 -46 -290 -98 -151
-52 -311 -107 -355 -122 -44 -15 -87 -29 -95 -32 -8 -4 -17 -7 -20 -8 -3 0
-35 -11 -72 -24 -57 -19 -66 -25 -59 -39 12 -22 12 -34 0 -49 -7 -7 -6 -14 1
-18 8 -5 8 -11 -1 -21 -8 -10 -8 -18 -1 -27 6 -7 8 -18 4 -24 -8 -13 -7 -81 2
-90 3 -3 1 -14 -4 -24 -7 -11 -7 -20 0 -24 5 -3 6 -13 3 -23 -6 -15 -6 -52 0
-112 1 -14 -2 -31 -7 -37 -4 -7 -5 -13 -1 -13 9 0 202 60 360 112 66 22 129
41 140 43 11 3 31 9 45 14 14 6 99 33 190 62 91 28 198 62 239 75 l73 24 187
-61 c102 -33 211 -69 241 -79 30 -10 127 -41 215 -70 88 -28 167 -54 175 -57
8 -3 20 -7 25 -8 6 -2 47 -14 93 -29 94 -30 96 -30 87 -15 -11 17 -13 59 -3
65 4 3 6 10 2 15 -9 16 -11 69 -2 69 4 0 4 11 -1 23 -5 13 -5 30 -1 37 5 8 7
17 4 21 -9 15 -11 70 -3 75 5 3 7 10 3 15 -10 16 -11 69 -1 69 4 0 6 4 2 10
-3 5 -6 24 -7 42 -1 32 -3 34 -82 60 -45 15 -153 52 -241 83 -88 32 -178 63
-200 70 -22 7 -112 39 -200 70 -138 50 -226 80 -285 98 -8 2 -44 -6 -80 -20z"/>
<path d="M2820 4916 c-19 -7 -39 -14 -45 -16 -5 -1 -14 -4 -20 -6 -5 -2 -50
-15 -100 -29 -103 -29 -96 -27 -155 -45 -25 -7 -49 -15 -55 -16 -5 -1 -80 -23
-165 -49 -85 -25 -166 -49 -179 -51 -14 -3 -29 -8 -34 -11 -5 -3 -30 -11 -55
-18 -76 -22 -206 -60 -387 -115 -93 -28 -213 -63 -265 -77 -52 -15 -97 -28
-100 -30 -2 -2 -4 -272 -5 -599 l0 -594 25 4 c14 2 54 11 90 21 36 9 72 18 80
20 8 2 116 29 240 60 124 31 232 58 240 60 8 2 116 29 240 60 124 31 232 58
240 60 8 2 44 11 80 20 36 9 72 18 80 20 8 2 44 11 80 20 36 9 70 18 75 19 6
1 44 10 85 20 l75 18 145 -37 c80 -20 154 -38 164 -41 10 -2 33 -8 50 -13 17
-6 42 -13 56 -15 14 -3 54 -12 90 -21 36 -9 72 -18 80 -20 8 -2 69 -18 135
-35 66 -17 127 -33 135 -35 8 -2 112 -28 231 -59 119 -30 231 -58 249 -61 19
-3 37 -8 42 -11 4 -3 16 -7 25 -9 10 -2 47 -11 83 -20 36 -10 76 -18 90 -19
l25 -1 0 118 c0 65 -3 121 -7 124 -5 2 -5 10 -1 16 10 16 11 217 1 224 -5 2
-5 10 -1 16 10 16 11 217 1 224 -5 2 -5 10 -1 16 10 16 11 217 1 224 -5 2 -5
10 -1 16 12 19 10 197 -3 207 -6 5 -19 11 -30 13 -10 2 -26 7 -34 10 -8 3 -49
15 -90 27 -41 12 -86 26 -100 31 -14 4 -115 35 -225 68 -271 81 -520 156 -637
192 -53 16 -105 32 -115 34 -10 2 -76 22 -148 45 -200 62 -222 66 -275 46z"/>
<path d="M2857 3354 c-2 -3 -13 -6 -23 -8 -11 -2 -37 -9 -59 -14 -22 -6 -51
-13 -65 -15 -14 -3 -45 -10 -70 -17 -45 -12 -65 -17 -108 -26 -13 -3 -90 -20
-170 -40 -81 -19 -174 -41 -207 -49 -90 -21 -252 -60 -420 -100 -82 -20 -161
-39 -175 -41 -14 -3 -90 -21 -170 -41 -161 -39 -174 -42 -210 -49 -14 -3 -59
-14 -100 -24 -41 -10 -86 -21 -100 -24 -14 -3 -35 -7 -47 -10 -106 -26 -198
-48 -222 -52 -14 -3 -27 -7 -31 -9 -4 -2 -40 -11 -81 -20 -41 -9 -81 -18 -89
-20 -44 -11 -156 -37 -165 -39 -27 -5 -33 -16 -22 -41 7 -14 16 -25 20 -25 5
0 5 -5 2 -11 -4 -5 1 -19 11 -30 9 -10 14 -19 11 -19 -3 0 4 -21 17 -47 41
-83 77 -162 78 -170 0 -4 9 -20 20 -35 11 -16 17 -28 14 -28 -3 0 9 -28 26
-62 18 -35 33 -65 33 -68 1 -3 11 -24 23 -46 11 -23 18 -44 15 -48 -4 -3 -1
-6 5 -6 7 0 12 -9 12 -20 0 -11 5 -20 10 -20 6 0 10 -4 10 -10 0 -9 56 -129
163 -350 23 -47 42 -87 42 -90 1 -3 15 -33 32 -67 18 -35 29 -63 25 -63 -4 0
-2 -4 3 -8 6 -4 23 -33 38 -65 15 -31 39 -83 54 -115 15 -31 32 -60 38 -64 5
-4 6 -8 2 -8 -4 0 4 -20 18 -45 14 -25 25 -51 25 -58 0 -7 6 -19 13 -26 6 -6
12 -15 13 -19 3 -22 27 -72 35 -72 5 0 9 -6 9 -14 0 -8 21 -56 46 -107 61
-124 147 -303 149 -309 4 -19 127 -260 133 -260 15 -1 92 -19 237 -53 83 -20
161 -38 175 -41 23 -4 211 -48 270 -63 14 -3 31 -7 39 -9 7 -1 34 -8 60 -14
25 -6 57 -13 71 -16 14 -3 43 -10 65 -15 22 -5 51 -12 65 -15 14 -3 41 -9 60
-14 19 -5 46 -11 60 -14 14 -3 52 -12 86 -20 34 -8 72 -17 85 -20 46 -9 67
-14 102 -24 27 -8 55 -5 119 10 45 11 93 22 106 24 12 3 75 18 140 34 100 25
153 37 232 55 64 14 202 47 235 55 22 6 51 13 65 16 14 3 43 10 65 15 22 5 51
12 65 15 14 3 52 12 85 21 33 8 67 16 75 18 69 14 246 57 252 61 5 3 6 10 3
15 -4 5 -2 9 4 9 8 0 24 32 26 52 0 3 3 9 7 13 9 10 85 166 93 193 3 12 11 22
16 22 5 0 9 9 9 19 0 11 5 23 10 26 6 4 8 10 5 15 -3 5 3 13 12 19 10 6 15 11
10 11 -4 0 10 35 32 78 56 112 175 356 176 362 5 24 18 50 26 50 6 0 7 4 4 10
-3 5 -1 10 6 10 7 0 9 3 6 6 -3 4 -1 16 5 28 7 11 11 24 10 29 -1 4 2 7 8 7 5
0 10 4 10 10 0 5 33 78 74 162 93 193 146 306 145 315 0 3 4 9 11 13 6 4 13
13 14 21 2 8 13 35 25 61 12 26 21 51 21 54 -1 4 2 10 7 13 5 3 16 22 25 41 9
19 38 80 64 135 26 55 48 102 49 105 4 18 49 106 57 111 5 3 9 9 8 13 -2 12
24 76 32 76 4 0 7 3 6 8 -1 8 8 31 50 122 17 36 32 72 34 80 2 8 10 20 18 27
8 7 12 13 7 13 -4 0 -1 13 8 29 l15 30 -58 12 c-31 7 -61 14 -67 15 -5 1 -77
19 -160 38 -82 20 -195 48 -250 61 -55 14 -109 27 -120 29 -11 3 -78 18 -150
36 -71 17 -231 55 -355 85 -180 43 -393 95 -582 141 -10 2 -28 6 -39 9 -51 11
-215 50 -339 81 -74 18 -150 36 -169 39 -19 3 -37 8 -41 10 -3 2 -17 6 -31 8
-13 3 -51 12 -84 20 -72 19 -122 27 -128 21z m-500 -549 c67 -34 137 -145 119
-191 -3 -8 -1 -14 4 -14 6 0 6 -9 1 -22 -19 -47 -24 -63 -23 -70 1 -5 -3 -8
-8 -8 -5 0 -10 -5 -10 -11 0 -17 -49 -58 -95 -80 -119 -56 -272 23 -300 157
-7 32 -7 36 -2 79 9 70 91 160 155 171 8 1 16 5 20 8 10 11 106 -2 139 -19z
m1235 -14 c70 -42 100 -92 104 -171 6 -111 -71 -215 -168 -226 -14 -2 -30 -4
-35 -6 -15 -4 -87 13 -115 28 -57 30 -103 95 -114 161 -3 21 -8 41 -11 46 -2
4 0 7 4 7 5 0 10 12 11 26 2 27 51 114 64 114 4 0 13 6 20 13 28 26 85 45 133
43 39 -1 64 -9 107 -35z m-1964 -166 c18 -11 32 -23 32 -26 0 -4 8 -15 18 -25
9 -10 17 -20 18 -23 0 -3 5 -15 10 -26 13 -29 10 -158 -4 -163 -7 -2 -12 -10
-12 -18 0 -18 -51 -69 -90 -89 -92 -48 -233 1 -276 96 -19 43 -32 89 -25 89 4
0 7 16 8 35 1 20 7 42 13 50 7 8 9 15 4 15 -14 0 70 82 96 92 68 29 152 26
208 -7z m2733 -11 c26 -14 52 -37 60 -50 7 -13 16 -24 21 -24 5 0 6 -4 3 -10
-3 -5 -2 -10 2 -10 5 0 9 -8 10 -17 1 -10 3 -36 6 -58 2 -22 2 -44 -2 -50 -3
-5 -6 -12 -7 -15 -8 -42 -62 -96 -123 -123 -51 -23 -145 -26 -182 -6 -41 21
-99 70 -94 79 3 5 -2 16 -12 25 -29 29 -20 179 12 212 8 8 15 17 15 21 0 17
72 54 117 61 59 9 113 -2 174 -35z"/>
</g>
</svg>
